<svg xmlns="http://www.w3.org/2000/svg" width="374" height="300" viewBox="0 0 374 300">
  <g id="darkModeMoodDepressed" transform="translate(-7203.608 -413.823)">
    <g id="moodDepressed" transform="translate(255.171 652.351)">
      <g id="Group_11" data-name="Group 11" transform="translate(6948.437 -238.528)">
        <g id="undraw_feeling_blue_4b7q" transform="translate(0 19.062)">
          <ellipse id="Ellipse_11" data-name="Ellipse 11" cx="4.42" cy="2.996" rx="4.42" ry="2.996" transform="translate(340.44 132.639)" fill="#575a89"/>
          <ellipse id="Ellipse_12" data-name="Ellipse 12" cx="127.5" cy="136.904" rx="127.5" ry="136.904" transform="translate(95.884 0)" fill="#2b2d2f" stroke="#fff" stroke-width="4"/>
          <path id="Path_52" data-name="Path 52" d="M522.015,581.422c0,22-6.723,0-37.226,0s-41,22-41,0c0-12.543-9.9-30.817,4.211-43.486h0c10.629-9.548,23.68-16.386,36.791-16.386,13.483,0,26.69,7.4,37.226,17.565C535.312,551.928,523.424,567.289,522.015,581.422Z" transform="translate(-260.517 -370.439)" fill="#f6f8fb"/>
          <path id="Path_53" data-name="Path 53" d="M555.74,552.994c-18.448-5.315-51.813-11.8-84.21-2.112,12.093-17.1,26.943-29.353,41.86-29.353C528.726,521.53,543.753,534.79,555.74,552.994Z" transform="translate(-289.817 -372.108)" fill="#7d7984"/>
          <path id="Path_59" data-name="Path 59" d="M101.794,723.55a4.42,4.42,0,0,1,.55,1.105c4.725,5.55,7.239,10.731,2.7,10.859-4.233.123-9.331,7.686-10.525,9.6a4.555,4.555,0,0,0,.147.437s5.947-9.891,10.8-10.034S107.117,729.5,101.794,723.55Z" transform="translate(-80.142 -464.61)" opacity="0.1"/>
          <path id="Path_61" data-name="Path 61" d="M120.8,734.84c-1.09.594-2.038.953-2.122.8s.737-.751,1.827-1.346.658-.162.742,0S121.906,734.246,120.8,734.84Z" transform="translate(-92.431 -469.923)" fill="#ffd037"/>
          <path id="Path_63" data-name="Path 63" d="M74.023,723.55a4.238,4.238,0,0,0-.55,1.105c-4.725,5.55-7.244,10.731-2.7,10.859,4.229.123,9.331,7.686,10.52,9.6a4.534,4.534,0,0,1-.142.437s-5.952-9.891-10.8-10.034S68.694,729.5,74.023,723.55Z" transform="translate(-66.624 -464.61)" opacity="0.1"/>
          <path id="Path_64" data-name="Path 64" d="M70.1,731.867c0,1.242.138,2.249.309,2.249s.309-.982.309-2.249-.172-.658-.344-.658S70.1,730.624,70.1,731.867Z" transform="translate(-67.716 -468.432)" fill="#ffd037"/>
          <path id="Path_65" data-name="Path 65" d="M65.906,734.84c1.09.594,2.043.953,2.127.8s-.737-.751-1.827-1.346-.663-.162-.742,0S64.815,734.246,65.906,734.84Z" transform="translate(-65.245 -469.923)" fill="#ffd037"/>
          <path id="Path_68" data-name="Path 68" d="M35.43,9.462C38.313,9.3,51.882,8.278,60.5,3.362a9.768,9.768,0,0,1,4.553-1.341c2.74-.079,5.893,1.066,3.875,7.47C65.658,19.967,46.666,31.754,34.88,31.1,23.545,30.472,10.1,25.9,1.218,9.845A9.823,9.823,0,0,1,.005,4.791c.1-3.241,1.282-7.3,7.367-2.775C15.593,8.131,31.191,9.29,34.32,9.462a10.355,10.355,0,0,0,1.11,0Z" transform="translate(204.293 131.123) rotate(180)" fill="#f6f8fb"/>
          <path id="eyeBrowLeft" d="M28.242,4.163c2.3-.071,13.115-.521,19.985-2.684a12.813,12.813,0,0,1,3.629-.59c2.184-.035,4.7.469,3.089,3.287C52.337,8.786,37.2,13.972,27.8,13.685,18.768,13.408,8.049,11.4.971,4.332A2.915,2.915,0,0,1,0,2.108C.086.682,1.026-1.105,5.876.887c6.553,2.69,18.987,3.2,21.481,3.276q.442.013.885,0Z" transform="translate(163.044 58.258) rotate(120)" fill="#f6f8fb"/>
          <path id="eyeBrowRight" d="M28.242,4.163c2.3-.071,13.115-.521,19.985-2.684a12.813,12.813,0,0,1,3.629-.59c2.184-.035,4.7.469,3.089,3.287C52.337,8.786,37.2,13.972,27.8,13.685,18.768,13.408,8.049,11.4.971,4.332A2.915,2.915,0,0,1,0,2.108C.086.682,1.026-1.105,5.876.887c6.553,2.69,18.987,3.2,21.481,3.276q.442.013.885,0Z" transform="translate(311.503 106.66) rotate(-120)" fill="#f6f8fb"/>
          <path id="Path_69" data-name="Path 69" d="M35.43,9.462C38.312,9.3,51.882,8.278,60.5,3.362a9.768,9.768,0,0,1,4.553-1.341c2.74-.079,5.893,1.066,3.875,7.47C65.658,19.967,46.666,31.754,34.88,31.1,23.544,30.472,10.1,25.9,1.218,9.845A9.822,9.822,0,0,1,.005,4.791c.1-3.241,1.282-7.3,7.367-2.775C15.593,8.131,31.191,9.29,34.32,9.462a10.355,10.355,0,0,0,1.11,0Z" transform="translate(310.892 131.123) rotate(180)" fill="#f6f8fb"/>
        </g>
        <g id="leaf" transform="translate(318.563 0)">
          <path id="Path_222" data-name="Path 222" d="M831.522,110.725s-41.347-2.49-36.476,26.486c0,0-.982,5.122,3.674,7.445,0,0,.074-2.146,4.243-1.419a19.092,19.092,0,0,0,4.489.216,9.331,9.331,0,0,0,5.5-2.269h0s11.625-4.8,16.143-23.8c0,0,3.345-4.14,3.212-5.206l-6.979,2.976s2.387,5.039.491,9.218c0,0-.226-9.032-1.567-8.84-.275.044-3.629,1.743-3.629,1.743s4.106,8.771.982,15.146c0,0,1.179-10.8-2.284-14.513l-4.911,2.868s4.8,9.061,1.547,16.448c0,0,.835-11.335-2.578-15.745l-4.45,3.472s4.558,8.963,1.8,15.073c0,0-.359-13.2-2.726-14.193,0,0-3.89,3.438-4.484,4.847,0,0,3.084,6.478,1.169,9.9,0,0-1.174-8.8-2.136-8.84,0,0-3.88,5.825-4.283,9.822,0,0,.167-5.938,3.345-10.377a11.675,11.675,0,0,0-5.943,3.079s.6-4.121,6.876-4.479c0,0,3.2-4.42,4.062-4.685,0,0-6.262-.526-10.058,1.159,0,0,3.344-3.885,11.207-2.122l4.42-3.585s-8.246-1.13-11.738.118c0,0,4.022-3.438,12.921-.933l4.784-2.863s-7.028-1.513-11.212-.982c0,0,4.42-2.382,12.612.2l3.438-1.537s-5.147-1.012-6.655-1.169-1.591-.575-1.591-.575a17.813,17.813,0,0,1,9.675,1.076S831.655,111.186,831.522,110.725Z" transform="translate(-776.87 -106.658)" fill="#f6f8fb"/>
          <path id="Path_223" data-name="Path 223" d="M766.108,84.525s-18.663-1.13-16.482,11.964a3.194,3.194,0,0,0,1.66,3.364s.034-.982,1.915-.638a8.639,8.639,0,0,0,2.033.1,4.238,4.238,0,0,0,2.456-1.026h0s5.25-2.171,7.293-10.756c0,0,1.513-1.871,1.473-2.352L763.3,86.524a5.671,5.671,0,0,1,.231,4.165s-.1-4.081-.707-3.983c-.128,0-1.64.786-1.64.786s1.852,3.963.457,6.841c0,0,.53-4.882-1.036-6.552l-2.22,1.292s2.166,4.1.7,7.436c0,0,.378-5.122-1.164-7.116l-2.009,1.567s2.033,4.032.791,6.8c0,0-.162-5.962-1.228-6.385a12.248,12.248,0,0,0-2.028,2.185s1.395,2.947.53,4.474c0,0-.53-3.973-.982-3.988a13.219,13.219,0,0,0-1.935,4.42,9.542,9.542,0,0,1,1.513-4.69,5.265,5.265,0,0,0-2.686,1.39s.275-1.861,3.119-2.023a12.253,12.253,0,0,1,1.837-2.117,11.543,11.543,0,0,0-4.548.526s1.513-1.758,5.063-.982l1.989-1.621s-3.728-.491-5.3.054c0,0,1.817-1.557,5.835-.422l2.166-1.3a19.68,19.68,0,0,0-5.068-.437s1.994-1.076,5.7.093l1.542-.7s-2.323-.457-3.006-.525-.717-.26-.717-.26a8.049,8.049,0,0,1,4.371.491S766.167,84.746,766.108,84.525Z" transform="translate(-749.449 -84.5)" fill="#f6f8fb"/>
        </g>
      </g>
      <g id="Path_226" data-name="Path 226" transform="translate(7088.508 -85.542)" fill="#f6f8fb">
        <path d="M 23.08902931213379 123.2892913818359 L 0.5000090599060059 123.2892913818359 L 0.5000090599060059 -5.201013565063477 L 23.29089164733887 -11.29515743255615 L 26.99421501159668 -2.990824937820435 L 23.08902931213379 123.2892913818359 Z" stroke="none"/>
        <path d="M 23.00795745849609 -10.70195770263672 L 0.9999904632568359 -4.817161560058594 L 0.9999904632568359 122.7892837524414 L 22.60424995422363 122.7892837524414 L 26.49089050292969 -2.89178466796875 L 23.00795745849609 -10.70195770263672 M 23.57380867004395 -11.88838958740234 L 27.49749946594238 -3.089859008789063 L 23.57380867004395 123.7892837524414 L -9.5367431640625e-06 123.7892837524414 L -9.5367431640625e-06 -5.58489990234375 L 23.57380867004395 -11.88838958740234 Z" stroke="none" fill="#5116b8"/>
      </g>
      <g id="Path_227" data-name="Path 227" transform="translate(7226.478 -85.542)" fill="#f6f8fb">
        <path d="M 26.99751853942871 123.2892837524414 L 4.4084792137146 123.2892837524414 L 0.5033130645751953 -2.990814685821533 L 4.206618309020996 -11.29514694213867 L 26.99751853942871 -5.201021194458008 L 26.99751853942871 123.2892837524414 Z" stroke="none"/>
        <path d="M 4.48954963684082 -10.70195770263672 L 1.006599426269531 -2.89178466796875 L 4.893259048461914 122.7892684936523 L 26.49749946594238 122.7892684936523 L 26.49749946594238 -4.817161560058594 L 4.48954963684082 -10.70195770263672 M 3.923700332641602 -11.88838958740234 L 27.49749946594238 -5.58489990234375 L 27.49749946594238 123.7892684936523 L 3.923700332641602 123.7892684936523 L -9.5367431640625e-06 -3.089859008789063 L 3.923700332641602 -11.88838958740234 Z" stroke="none" fill="#5116b8"/>
      </g>
    </g>
    <g id="dropletRightTop" transform="translate(7496.342 591.778)" fill="#7d7984">
      <path d="M 4.329105377197266 17.72211837768555 C 3.388765335083008 17.72211837768555 2.437065362930298 16.86985778808594 1.718045353889465 15.38387775421143 C 0.9325754046440125 13.7605676651001 0.4999953806400299 11.59116840362549 0.4999953806400299 9.275298118591309 C 0.4999953806400299 6.991898059844971 0.9302853941917419 4.906697750091553 1.711595416069031 3.403807878494263 C 2.424615383148193 2.032277822494507 3.354195356369019 1.276937961578369 4.329105377197266 1.276937961578369 C 5.304015159606934 1.276937961578369 6.233595371246338 2.032277822494507 6.946615219116211 3.403807878494263 C 7.727925300598145 4.906697750091553 8.158215522766113 6.991898059844971 8.158215522766113 9.275298118591309 C 8.158215522766113 11.59116840362549 7.725635528564453 13.7605676651001 6.940165519714355 15.38387775421143 C 6.221145153045654 16.86985778808594 5.269445419311523 17.72211837768555 4.329105377197266 17.72211837768555 Z" stroke="none"/>
      <path d="M 4.329105377197266 1.776937484741211 C 3.561265468597412 1.776937484741211 2.768915176391602 2.453968048095703 2.155225276947021 3.634437561035156 C 1.410265445709229 5.067407608032227 0.999995231628418 7.070708274841309 0.999995231628418 9.275298118591309 C 0.999995231628418 11.51725769042969 1.41484546661377 13.60931777954102 2.168125152587891 15.16609764099121 C 2.791065216064453 16.4535083770752 3.598915576934814 17.22211837768555 4.329105377197266 17.22211837768555 C 5.059295654296875 17.22211837768555 5.867145538330078 16.4535083770752 6.490085601806641 15.16609764099121 C 7.243365287780762 13.60931777954102 7.658215522766113 11.51725769042969 7.658215522766113 9.275298118591309 C 7.658215522766113 7.070708274841309 7.247945308685303 5.067407608032227 6.50298547744751 3.634437561035156 C 5.88929557800293 2.453968048095703 5.096945285797119 1.776937484741211 4.329105377197266 1.776937484741211 M 4.329105377197266 0.7769374847412109 C 6.720005512237549 0.7769374847412109 8.658215522766113 4.334108352661133 8.658215522766113 9.275298118591309 C 8.658215522766113 14.21648788452148 6.720005512237549 18.22211837768555 4.329105377197266 18.22211837768555 C 1.938205242156982 18.22211837768555 -4.76837158203125e-06 14.21648788452148 -4.76837158203125e-06 9.275298118591309 C -4.76837158203125e-06 4.334108352661133 1.938205242156982 0.7769374847412109 4.329105377197266 0.7769374847412109 Z" stroke="none" fill="#707070"/>
    </g>
    <g id="dropletLeftMid" transform="translate(7347.342 620.778)" fill="#7d7984">
      <path d="M 4.329105377197266 17.72211837768555 C 3.388765335083008 17.72211837768555 2.437065362930298 16.86985778808594 1.718045353889465 15.38387775421143 C 0.9325754046440125 13.7605676651001 0.4999953806400299 11.59116840362549 0.4999953806400299 9.275298118591309 C 0.4999953806400299 6.991898059844971 0.9302853941917419 4.906697750091553 1.711595416069031 3.403807878494263 C 2.424615383148193 2.032277822494507 3.354195356369019 1.276937961578369 4.329105377197266 1.276937961578369 C 5.304015159606934 1.276937961578369 6.233595371246338 2.032277822494507 6.946615219116211 3.403807878494263 C 7.727925300598145 4.906697750091553 8.158215522766113 6.991898059844971 8.158215522766113 9.275298118591309 C 8.158215522766113 11.59116840362549 7.725635528564453 13.7605676651001 6.940165519714355 15.38387775421143 C 6.221145153045654 16.86985778808594 5.269445419311523 17.72211837768555 4.329105377197266 17.72211837768555 Z" stroke="none"/>
      <path d="M 4.329105377197266 1.776937484741211 C 3.561265468597412 1.776937484741211 2.768915176391602 2.453968048095703 2.155225276947021 3.634437561035156 C 1.410265445709229 5.067407608032227 0.999995231628418 7.070708274841309 0.999995231628418 9.275298118591309 C 0.999995231628418 11.51725769042969 1.41484546661377 13.60931777954102 2.168125152587891 15.16609764099121 C 2.791065216064453 16.4535083770752 3.598915576934814 17.22211837768555 4.329105377197266 17.22211837768555 C 5.059295654296875 17.22211837768555 5.867145538330078 16.4535083770752 6.490085601806641 15.16609764099121 C 7.243365287780762 13.60931777954102 7.658215522766113 11.51725769042969 7.658215522766113 9.275298118591309 C 7.658215522766113 7.070708274841309 7.247945308685303 5.067407608032227 6.50298547744751 3.634437561035156 C 5.88929557800293 2.453968048095703 5.096945285797119 1.776937484741211 4.329105377197266 1.776937484741211 M 4.329105377197266 0.7769374847412109 C 6.720005512237549 0.7769374847412109 8.658215522766113 4.334108352661133 8.658215522766113 9.275298118591309 C 8.658215522766113 14.21648788452148 6.720005512237549 18.22211837768555 4.329105377197266 18.22211837768555 C 1.938205242156982 18.22211837768555 -4.76837158203125e-06 14.21648788452148 -4.76837158203125e-06 9.275298118591309 C -4.76837158203125e-06 4.334108352661133 1.938205242156982 0.7769374847412109 4.329105377197266 0.7769374847412109 Z" stroke="none" fill="#707070"/>
    </g>
    <g id="dropletLeftTop" transform="translate(7357.342 570.778)" fill="#7d7984">
      <path d="M 4.329105377197266 17.72211837768555 C 3.388765335083008 17.72211837768555 2.437065362930298 16.86985778808594 1.718045353889465 15.38387775421143 C 0.9325754046440125 13.7605676651001 0.4999953806400299 11.59116840362549 0.4999953806400299 9.275298118591309 C 0.4999953806400299 6.991898059844971 0.9302853941917419 4.906697750091553 1.711595416069031 3.403807878494263 C 2.424615383148193 2.032277822494507 3.354195356369019 1.276937961578369 4.329105377197266 1.276937961578369 C 5.304015159606934 1.276937961578369 6.233595371246338 2.032277822494507 6.946615219116211 3.403807878494263 C 7.727925300598145 4.906697750091553 8.158215522766113 6.991898059844971 8.158215522766113 9.275298118591309 C 8.158215522766113 11.59116840362549 7.725635528564453 13.7605676651001 6.940165519714355 15.38387775421143 C 6.221145153045654 16.86985778808594 5.269445419311523 17.72211837768555 4.329105377197266 17.72211837768555 Z" stroke="none"/>
      <path d="M 4.329105377197266 1.776937484741211 C 3.561265468597412 1.776937484741211 2.768915176391602 2.453968048095703 2.155225276947021 3.634437561035156 C 1.410265445709229 5.067407608032227 0.999995231628418 7.070708274841309 0.999995231628418 9.275298118591309 C 0.999995231628418 11.51725769042969 1.41484546661377 13.60931777954102 2.168125152587891 15.16609764099121 C 2.791065216064453 16.4535083770752 3.598915576934814 17.22211837768555 4.329105377197266 17.22211837768555 C 5.059295654296875 17.22211837768555 5.867145538330078 16.4535083770752 6.490085601806641 15.16609764099121 C 7.243365287780762 13.60931777954102 7.658215522766113 11.51725769042969 7.658215522766113 9.275298118591309 C 7.658215522766113 7.070708274841309 7.247945308685303 5.067407608032227 6.50298547744751 3.634437561035156 C 5.88929557800293 2.453968048095703 5.096945285797119 1.776937484741211 4.329105377197266 1.776937484741211 M 4.329105377197266 0.7769374847412109 C 6.720005512237549 0.7769374847412109 8.658215522766113 4.334108352661133 8.658215522766113 9.275298118591309 C 8.658215522766113 14.21648788452148 6.720005512237549 18.22211837768555 4.329105377197266 18.22211837768555 C 1.938205242156982 18.22211837768555 -4.76837158203125e-06 14.21648788452148 -4.76837158203125e-06 9.275298118591309 C -4.76837158203125e-06 4.334108352661133 1.938205242156982 0.7769374847412109 4.329105377197266 0.7769374847412109 Z" stroke="none" fill="#707070"/>
    </g>
    <g id="dropletRightMid" transform="translate(7488.342 637.778)" fill="#7d7984">
      <path d="M 4.329105377197266 17.72211837768555 C 3.388765335083008 17.72211837768555 2.437065362930298 16.86985778808594 1.718045353889465 15.38387775421143 C 0.9325754046440125 13.7605676651001 0.4999953806400299 11.59116840362549 0.4999953806400299 9.275298118591309 C 0.4999953806400299 6.991898059844971 0.9302853941917419 4.906697750091553 1.711595416069031 3.403807878494263 C 2.424615383148193 2.032277822494507 3.354195356369019 1.276937961578369 4.329105377197266 1.276937961578369 C 5.304015159606934 1.276937961578369 6.233595371246338 2.032277822494507 6.946615219116211 3.403807878494263 C 7.727925300598145 4.906697750091553 8.158215522766113 6.991898059844971 8.158215522766113 9.275298118591309 C 8.158215522766113 11.59116840362549 7.725635528564453 13.7605676651001 6.940165519714355 15.38387775421143 C 6.221145153045654 16.86985778808594 5.269445419311523 17.72211837768555 4.329105377197266 17.72211837768555 Z" stroke="none"/>
      <path d="M 4.329105377197266 1.776937484741211 C 3.561265468597412 1.776937484741211 2.768915176391602 2.453968048095703 2.155225276947021 3.634437561035156 C 1.410265445709229 5.067407608032227 0.999995231628418 7.070708274841309 0.999995231628418 9.275298118591309 C 0.999995231628418 11.51725769042969 1.41484546661377 13.60931777954102 2.168125152587891 15.16609764099121 C 2.791065216064453 16.4535083770752 3.598915576934814 17.22211837768555 4.329105377197266 17.22211837768555 C 5.059295654296875 17.22211837768555 5.867145538330078 16.4535083770752 6.490085601806641 15.16609764099121 C 7.243365287780762 13.60931777954102 7.658215522766113 11.51725769042969 7.658215522766113 9.275298118591309 C 7.658215522766113 7.070708274841309 7.247945308685303 5.067407608032227 6.50298547744751 3.634437561035156 C 5.88929557800293 2.453968048095703 5.096945285797119 1.776937484741211 4.329105377197266 1.776937484741211 M 4.329105377197266 0.7769374847412109 C 6.720005512237549 0.7769374847412109 8.658215522766113 4.334108352661133 8.658215522766113 9.275298118591309 C 8.658215522766113 14.21648788452148 6.720005512237549 18.22211837768555 4.329105377197266 18.22211837768555 C 1.938205242156982 18.22211837768555 -4.76837158203125e-06 14.21648788452148 -4.76837158203125e-06 9.275298118591309 C -4.76837158203125e-06 4.334108352661133 1.938205242156982 0.7769374847412109 4.329105377197266 0.7769374847412109 Z" stroke="none" fill="#707070"/>
    </g>
    <g id="Path_235" data-name="Path 235" transform="translate(7481 686)" fill="#f6f8fb">
      <path d="M 27 21.5 C 19.85120010375977 21.5 13.13790035247803 20.36891937255859 8.096759796142578 18.31513023376465 C 5.67618989944458 17.32896995544434 3.782619953155518 16.18721008300781 2.468660116195679 14.92158031463623 C 1.162350058555603 13.66331958770752 0.5 12.34391021728516 0.5 11 C 0.5 9.656089782714844 1.162350058555603 8.33668041229248 2.468660116195679 7.078420162200928 C 3.782619953155518 5.812789916992188 5.67618989944458 4.671030044555664 8.096759796142578 3.684870004653931 C 13.13790035247803 1.631080031394958 19.85120010375977 0.5 27 0.5 C 34.14879989624023 0.5 40.86209869384766 1.631080031394958 45.90324020385742 3.684870004653931 C 48.32381057739258 4.671030044555664 50.21738052368164 5.812789916992188 51.53134155273438 7.078420162200928 C 52.83765029907227 8.33668041229248 53.5 9.656089782714844 53.5 11 C 53.5 12.34391021728516 52.83765029907227 13.66331958770752 51.53134155273438 14.92158031463623 C 50.21738052368164 16.18721008300781 48.32381057739258 17.32896995544434 45.90324020385742 18.31513023376465 C 40.86209869384766 20.36891937255859 34.14879989624023 21.5 27 21.5 Z" stroke="none"/>
      <path d="M 27 1 C 19.91436004638672 1 13.26805877685547 2.117950439453125 8.285411834716797 4.147920608520508 C 3.655429840087891 6.034210205078125 1 8.531700134277344 1 11 C 1 13.46829986572266 3.655429840087891 15.96578979492188 8.285411834716797 17.85207939147949 C 13.26805877685547 19.88204956054688 19.91436004638672 21 27 21 C 34.08563995361328 21 40.73194122314453 19.88204956054688 45.71459197998047 17.85207939147949 C 50.34457015991211 15.96578979492188 53 13.46829986572266 53 11 C 53 8.531700134277344 50.34457015991211 6.034210205078125 45.71459197998047 4.147920608520508 C 40.73194122314453 2.117950439453125 34.08563995361328 1 27 1 M 27 0 C 41.91168975830078 0 54 4.924869537353516 54 11 C 54 17.07513046264648 41.91168975830078 22 27 22 C 12.08831024169922 22 0 17.07513046264648 0 11 C 0 4.924869537353516 12.08831024169922 0 27 0 Z" stroke="none" fill="#5116b8"/>
    </g>
    <g id="Path_236" data-name="Path 236" transform="translate(7322 686)" fill="#f6f8fb">
      <path d="M 27 21.5 C 19.85120010375977 21.5 13.13790035247803 20.36891937255859 8.096759796142578 18.31513023376465 C 5.67618989944458 17.32896995544434 3.782619953155518 16.18721008300781 2.468660116195679 14.92158031463623 C 1.162350058555603 13.66331958770752 0.5 12.34391021728516 0.5 11 C 0.5 9.656089782714844 1.162350058555603 8.33668041229248 2.468660116195679 7.078420162200928 C 3.782619953155518 5.812789916992188 5.67618989944458 4.671030044555664 8.096759796142578 3.684870004653931 C 13.13790035247803 1.631080031394958 19.85120010375977 0.5 27 0.5 C 34.14879989624023 0.5 40.86209869384766 1.631080031394958 45.90324020385742 3.684870004653931 C 48.32381057739258 4.671030044555664 50.21738052368164 5.812789916992188 51.53134155273438 7.078420162200928 C 52.83765029907227 8.33668041229248 53.5 9.656089782714844 53.5 11 C 53.5 12.34391021728516 52.83765029907227 13.66331958770752 51.53134155273438 14.92158031463623 C 50.21738052368164 16.18721008300781 48.32381057739258 17.32896995544434 45.90324020385742 18.31513023376465 C 40.86209869384766 20.36891937255859 34.14879989624023 21.5 27 21.5 Z" stroke="none"/>
      <path d="M 27 1 C 19.91436004638672 1 13.26805877685547 2.117950439453125 8.285411834716797 4.147920608520508 C 3.655429840087891 6.034210205078125 1 8.531700134277344 1 11 C 1 13.46829986572266 3.655429840087891 15.96578979492188 8.285411834716797 17.85207939147949 C 13.26805877685547 19.88204956054688 19.91436004638672 21 27 21 C 34.08563995361328 21 40.73194122314453 19.88204956054688 45.71459197998047 17.85207939147949 C 50.34457015991211 15.96578979492188 53 13.46829986572266 53 11 C 53 8.531700134277344 50.34457015991211 6.034210205078125 45.71459197998047 4.147920608520508 C 40.73194122314453 2.117950439453125 34.08563995361328 1 27 1 M 27 0 C 41.91168975830078 0 54 4.924869537353516 54 11 C 54 17.07513046264648 41.91168975830078 22 27 22 C 12.08831024169922 22 0 17.07513046264648 0 11 C 0 4.924869537353516 12.08831024169922 0 27 0 Z" stroke="none" fill="#5116b8"/>
    </g>
    <g id="Ellipse_21" data-name="Ellipse 21" transform="translate(7508 686)" fill="#fff" stroke="#707070" stroke-width="1">
      <circle cx="1" cy="1" r="1" stroke="none"/>
      <circle cx="1" cy="1" r="0.5" fill="none"/>
    </g>
    <g id="Ellipse_22" data-name="Ellipse 22" transform="translate(7352 686)" fill="#fff" stroke="#707070" stroke-width="1">
      <circle cx="1" cy="1" r="1" stroke="none"/>
      <circle cx="1" cy="1" r="0.5" fill="none"/>
    </g>
    <g id="dropletLeftBot" transform="translate(7343 691)" fill="#7d7984" stroke="#707070" stroke-width="1">
      <ellipse cx="9" cy="6" rx="9" ry="6" stroke="none"/>
      <ellipse cx="9" cy="6" rx="8.5" ry="5.5" fill="none"/>
    </g>
    <g id="dropletRightBot" transform="translate(7490 691)" fill="#7d7984" stroke="#707070" stroke-width="1">
      <ellipse cx="6.5" cy="6" rx="6.5" ry="6" stroke="none"/>
      <ellipse cx="6.5" cy="6" rx="6" ry="5.5" fill="none"/>
    </g>
  </g>
</svg>
