<svg xmlns="http://www.w3.org/2000/svg" width="374" height="300" viewBox="0 0 374 300">
  <g id="moodOkay" transform="translate(-762.608 -2235.823)">
    <g id="Group_14" data-name="Group 14" transform="translate(340 -8)">
      <g id="test" transform="translate(-6781 1830)">
        <g id="moodDepressed" transform="translate(255.171 652.351)">
          <g id="Group_11" data-name="Group 11" transform="translate(6948.437 -238.528)">
            <g id="undraw_feeling_blue_4b7q" transform="translate(0 19.062)">
              <ellipse id="Ellipse_11" data-name="Ellipse 11" cx="4.42" cy="2.996" rx="4.42" ry="2.996" transform="translate(340.44 132.639)" fill="#ee8932"/>
              <ellipse id="Ellipse_12" data-name="Ellipse 12" cx="127.5" cy="136.904" rx="127.5" ry="136.904" transform="translate(95.884 0)" fill="#ee8932"/>
              <path id="Path_59" data-name="Path 59" d="M101.794,723.55a4.42,4.42,0,0,1,.55,1.105c4.725,5.55,7.239,10.731,2.7,10.859-4.233.123-9.331,7.686-10.525,9.6a4.555,4.555,0,0,0,.147.437s5.947-9.891,10.8-10.034S107.117,729.5,101.794,723.55Z" transform="translate(-80.142 -464.61)" fill="#ee8932" opacity="0.1"/>
              <path id="Path_61" data-name="Path 61" d="M120.8,734.84c-1.09.594-2.038.953-2.122.8s.737-.751,1.827-1.346.658-.162.742,0S121.906,734.246,120.8,734.84Z" transform="translate(-92.431 -469.923)" fill="#ee8932"/>
              <path id="Path_63" data-name="Path 63" d="M74.023,723.55a4.238,4.238,0,0,0-.55,1.105c-4.725,5.55-7.244,10.731-2.7,10.859,4.229.123,9.331,7.686,10.52,9.6a4.534,4.534,0,0,1-.142.437s-5.952-9.891-10.8-10.034S68.694,729.5,74.023,723.55Z" transform="translate(-66.624 -464.61)" fill="#ee8932" opacity="0.1"/>
              <path id="Path_64" data-name="Path 64" d="M70.1,731.867c0,1.242.138,2.249.309,2.249s.309-.982.309-2.249-.172-.658-.344-.658S70.1,730.624,70.1,731.867Z" transform="translate(-67.716 -468.432)" fill="#ee8932"/>
              <path id="Path_65" data-name="Path 65" d="M65.906,734.84c1.09.594,2.043.953,2.127.8s-.737-.751-1.827-1.346-.663-.162-.742,0S64.815,734.246,65.906,734.84Z" transform="translate(-65.245 -469.923)" fill="#ee8932"/>
            </g>
            <g id="leaf" transform="translate(318.563 0)">
              <path id="Path_222" data-name="Path 222" d="M831.522,110.725s-41.347-2.49-36.476,26.486c0,0-.982,5.122,3.674,7.445,0,0,.074-2.146,4.243-1.419a19.092,19.092,0,0,0,4.489.216,9.331,9.331,0,0,0,5.5-2.269h0s11.625-4.8,16.143-23.8c0,0,3.345-4.14,3.212-5.206l-6.979,2.976s2.387,5.039.491,9.218c0,0-.226-9.032-1.567-8.84-.275.044-3.629,1.743-3.629,1.743s4.106,8.771.982,15.146c0,0,1.179-10.8-2.284-14.513l-4.911,2.868s4.8,9.061,1.547,16.448c0,0,.835-11.335-2.578-15.745l-4.45,3.472s4.558,8.963,1.8,15.073c0,0-.359-13.2-2.726-14.193,0,0-3.89,3.438-4.484,4.847,0,0,3.084,6.478,1.169,9.9,0,0-1.174-8.8-2.136-8.84,0,0-3.88,5.825-4.283,9.822,0,0,.167-5.938,3.345-10.377a11.675,11.675,0,0,0-5.943,3.079s.6-4.121,6.876-4.479c0,0,3.2-4.42,4.062-4.685,0,0-6.262-.526-10.058,1.159,0,0,3.344-3.885,11.207-2.122l4.42-3.585s-8.246-1.13-11.738.118c0,0,4.022-3.438,12.921-.933l4.784-2.863s-7.028-1.513-11.212-.982c0,0,4.42-2.382,12.612.2l3.438-1.537s-5.147-1.012-6.655-1.169-1.591-.575-1.591-.575a17.813,17.813,0,0,1,9.675,1.076S831.655,111.186,831.522,110.725Z" transform="translate(-776.87 -106.658)" fill="#ee8932"/>
              <path id="Path_223" data-name="Path 223" d="M766.108,84.525s-18.663-1.13-16.482,11.964a3.194,3.194,0,0,0,1.66,3.364s.034-.982,1.915-.638a8.639,8.639,0,0,0,2.033.1,4.238,4.238,0,0,0,2.456-1.026h0s5.25-2.171,7.293-10.756c0,0,1.513-1.871,1.473-2.352L763.3,86.524a5.671,5.671,0,0,1,.231,4.165s-.1-4.081-.707-3.983c-.128,0-1.64.786-1.64.786s1.852,3.963.457,6.841c0,0,.53-4.882-1.036-6.552l-2.22,1.292s2.166,4.1.7,7.436c0,0,.378-5.122-1.164-7.116l-2.009,1.567s2.033,4.032.791,6.8c0,0-.162-5.962-1.228-6.385a12.248,12.248,0,0,0-2.028,2.185s1.395,2.947.53,4.474c0,0-.53-3.973-.982-3.988a13.219,13.219,0,0,0-1.935,4.42,9.542,9.542,0,0,1,1.513-4.69,5.265,5.265,0,0,0-2.686,1.39s.275-1.861,3.119-2.023a12.253,12.253,0,0,1,1.837-2.117,11.543,11.543,0,0,0-4.548.526s1.513-1.758,5.063-.982l1.989-1.621s-3.728-.491-5.3.054c0,0,1.817-1.557,5.835-.422l2.166-1.3a19.68,19.68,0,0,0-5.068-.437s1.994-1.076,5.7.093l1.542-.7s-2.323-.457-3.006-.525-.717-.26-.717-.26a8.049,8.049,0,0,1,4.371.491S766.167,84.746,766.108,84.525Z" transform="translate(-749.449 -84.5)" fill="#ee8932"/>
            </g>
          </g>
        </g>
        <g id="Ellipse_21" data-name="Ellipse 21" transform="translate(7508 686)" fill="#ee8932" stroke="#707070" stroke-width="1">
          <circle cx="1" cy="1" r="1" stroke="none"/>
          <circle cx="1" cy="1" r="0.5" fill="none"/>
        </g>
        <g id="Ellipse_22" data-name="Ellipse 22" transform="translate(7352 686)" fill="#ee8932" stroke="#707070" stroke-width="1">
          <circle cx="1" cy="1" r="1" stroke="none"/>
          <circle cx="1" cy="1" r="0.5" fill="none"/>
        </g>
      </g>
    </g>
    <path id="shadow" d="M358.125,266.68s-40.862,26.127-40.528,66.976c.173,21.159,11.041,2.427,21.589-20.792C348.787,291.731,358.125,266.68,358.125,266.68Z" transform="translate(569.105 2042.908)" fill="#f47329" stroke="#f6f8fb" stroke-width="1" opacity="0.34"/>
    <path id="Path_239" data-name="Path 239" d="M14.066,0c7.769,0,14.066,8.249,14.066,18.424S21.835,51.24,14.066,51.24,0,28.6,0,18.424,6.3,0,14.066,0Z" transform="translate(935.574 2347.64)" fill="#444053"/>
    <path id="Path_240" data-name="Path 240" d="M14.066,0c7.769,0,14.066,8.249,14.066,18.424S21.835,51.24,14.066,51.24,0,28.6,0,18.424,6.3,0,14.066,0Z" transform="translate(1008.574 2347.64)" fill="#444053"/>
    <path id="Path_241" data-name="Path 241" d="M489.631,545.873c0,18.852-33.144,21.088-65.932,21.088s-63.39-2.95-63.39-21.805,30.586-11.141,63.39-11.141S489.631,527.018,489.631,545.873Z" transform="translate(559.397 1915.047)" fill="#444053"/>
  </g>
</svg>
